<svg width="65" height="65" viewBox="0 0 65 65" fill="none" xmlns="http://www.w3.org/2000/svg">
<path d="M65 45.8307C65 57.5872 57.9475 64.5958 46.1175 64.5958H42.25C40.4625 64.5958 39 63.1424 39 61.366V42.7301C39 41.8581 39.715 41.1152 40.5925 41.1152L46.3125 41.0183C46.7675 40.986 47.1575 40.6631 47.255 40.2109L48.3925 34.042C48.49 33.4606 48.035 32.9116 47.4175 32.9116L40.495 33.0085C39.585 33.0085 38.87 32.2979 38.8375 31.4259L38.7075 23.5129C38.7075 22.9961 39.13 22.544 39.6825 22.544L47.4825 22.4147C48.035 22.4147 48.4575 21.9949 48.4575 21.4458L48.3275 13.6943C48.3275 13.1452 47.905 12.7254 47.3525 12.7254L38.5775 12.8546C33.1825 12.9515 28.8925 17.344 28.99 22.7054L29.1525 31.5873C29.185 32.4917 28.47 33.2022 27.56 33.2345L23.66 33.2991C23.1075 33.2991 22.685 33.719 22.685 34.2681L22.7825 40.4047C22.7825 40.9537 23.205 41.3736 23.7575 41.3736L27.6575 41.309C28.5675 41.309 29.2825 42.0196 29.315 42.8916L29.6075 61.3014C29.64 63.1101 28.1775 64.5958 26.3575 64.5958H18.8825C7.0525 64.5958 0 57.5872 0 45.7984V18.7651C0 7.00864 7.0525 0 18.8825 0H46.1175C57.9475 0 65 7.00864 65 18.7651V45.8307Z" fill="#1E00DA"/>
</svg>
