<svg width="355" height="310" viewBox="0 0 355 310" fill="none" xmlns="http://www.w3.org/2000/svg">
<mask id="path-1-inside-1_11_67" fill="white">
<path d="M109.389 228.146C69.8591 185.539 72.3536 118.953 114.961 79.4234C157.568 39.8935 224.153 42.3881 263.683 84.9953L268.05 89.7024C307.58 132.31 305.086 198.895 262.478 238.425C219.871 277.955 153.286 275.46 113.756 232.853L109.389 228.146Z"/>
</mask>
<path d="M37.8137 150.999L192.108 7.84819L37.8137 150.999ZM272.811 94.8341C312.341 137.441 309.847 204.026 267.239 243.556C224.632 283.086 158.047 280.592 118.517 237.985L113.756 232.853C150.657 272.626 215.11 272.823 257.718 233.293C300.325 193.763 304.951 129.476 268.05 89.7025L272.811 94.8341ZM185.331 310L37.8137 150.999L185.331 310ZM192.108 7.84819L339.626 166.85L192.108 7.84819Z" fill="white" mask="url(#path-1-inside-1_11_67)"/>
<mask id="path-3-inside-2_11_67" fill="white">
<path d="M124.372 220.298C84.8419 177.69 87.3364 111.105 129.944 71.5752C172.551 32.0453 239.136 34.54 278.666 77.1471L283.033 81.8543C322.563 124.461 320.068 191.047 277.461 230.577C234.854 270.107 168.269 267.612 128.739 225.005L124.372 220.298Z"/>
</mask>
<path d="M52.7965 143.15L207.091 4.0686e-05L52.7965 143.15ZM287.794 86.986C327.324 129.593 324.829 196.178 282.222 235.708C239.615 275.238 173.03 272.744 133.5 230.136L128.739 225.005C165.64 264.778 230.093 264.975 272.7 225.445C315.307 185.915 319.934 121.627 283.033 81.8544L287.794 86.986ZM200.314 302.152L52.7965 143.15L200.314 302.152ZM207.091 4.0686e-05L354.608 159.001L207.091 4.0686e-05Z" fill="white" mask="url(#path-3-inside-2_11_67)"/>
<mask id="path-5-inside-3_11_67" fill="white">
<path d="M90.2054 85.0008C129.732 42.3906 196.317 39.8908 238.927 79.4174C281.538 118.944 284.037 185.529 244.511 228.139L240.144 232.847C200.617 275.457 134.032 277.957 91.4219 238.43C48.8117 198.904 46.312 132.319 85.8386 89.7083L90.2054 85.0008Z"/>
</mask>
<path d="M161.775 7.84813L316.08 150.987L161.775 7.84813ZM235.383 237.979C195.857 280.589 129.272 283.089 86.6613 243.562C44.0512 204.036 41.5514 137.45 81.078 94.8403L85.8386 89.7083C48.9412 129.484 53.5723 193.772 96.1825 233.298C138.793 272.825 203.246 272.623 240.144 232.847L235.383 237.979ZM14.2693 166.861L161.775 7.84813L14.2693 166.861ZM316.08 150.987L168.575 309.999L316.08 150.987Z" fill="white" mask="url(#path-5-inside-3_11_67)"/>
<mask id="path-7-inside-4_11_67" fill="white">
<path d="M75.9361 77.1527C115.463 34.5425 182.048 32.0426 224.658 71.5692C267.268 111.096 269.768 177.681 230.241 220.291L225.874 224.999C186.348 267.609 119.763 270.109 77.1526 230.582C34.5424 191.055 32.0426 124.47 71.5693 81.8602L75.9361 77.1527Z"/>
</mask>
<path d="M147.505 0L301.811 143.138L147.505 0ZM221.114 230.131C181.587 272.741 115.002 275.241 72.392 235.714C29.7818 196.187 27.2821 129.602 66.8087 86.9922L71.5692 81.8602C34.6718 121.636 39.303 185.923 81.9132 225.45C124.523 264.977 188.977 264.775 225.874 224.999L221.114 230.131ZM-1.50972e-06 159.013L147.505 0L-1.50972e-06 159.013ZM301.811 143.138L154.305 302.151L301.811 143.138Z" fill="white" mask="url(#path-7-inside-4_11_67)"/>
<path d="M224.67 115C228.967 106.727 232 98.3398 232 88.2543C232 56.0813 207.152 30 176.5 30C145.848 30 121 56.0813 121 88.2543C121 98.3398 124.033 106.727 128.33 115" stroke="white" stroke-width="5" stroke-linecap="round" stroke-linejoin="round"/>
<path d="M124 91L167 104.462L149.807 115" stroke="white" stroke-width="5" stroke-linecap="round" stroke-linejoin="round"/>
<path d="M188.127 116L187 96.9284L203.8 91L229 93.9642" stroke="white" stroke-width="5" stroke-linecap="round" stroke-linejoin="round"/>
<path d="M202.653 39L198.84 50.6825L177 62.073L189.48 85L197 73.4635H213L229 79.1587" stroke="white" stroke-width="5" stroke-linecap="round" stroke-linejoin="round"/>
<path d="M121 82L145.45 76.1487L167 82V49.8179L159.861 33" stroke="white" stroke-width="5" stroke-linecap="round" stroke-linejoin="round"/>
<path d="M177 213V128.125C177 121.429 182.999 116 190.4 116H239.98C242.2 116 244 117.629 244 119.637V199.143" stroke="white" stroke-width="5" stroke-linecap="round"/>
<path d="M177 213V128.125C177 121.429 170.911 116 163.4 116H113.08C110.827 116 109 117.629 109 119.637V199.143" stroke="white" stroke-width="5" stroke-linecap="round"/>
<path d="M190 201H244" stroke="white" stroke-width="5" stroke-linecap="round"/>
<path d="M163 201H109" stroke="white" stroke-width="5" stroke-linecap="round"/>
<path d="M177 213C177 206.372 182.82 201 190 201" stroke="white" stroke-width="5" stroke-linecap="round" stroke-linejoin="round"/>
<path d="M177 213C177 206.372 170.732 201 163 201" stroke="white" stroke-width="5" stroke-linecap="round" stroke-linejoin="round"/>
</svg>
