<svg width="37" height="36" viewBox="0 0 37 36" fill="none" xmlns="http://www.w3.org/2000/svg">
<path d="M28.4331 35.6707C20.8952 35.6613 13.6688 32.7645 8.33866 27.6156C3.00853 22.4667 0.0097705 15.4861 0 8.20443C0 6.02853 0.894797 3.94176 2.48755 2.40317C4.08029 0.864575 6.24052 0.000203848 8.49301 0.000203848C8.96999 -0.00330578 9.44617 0.038511 9.91467 0.125051C10.3676 0.189794 10.8128 0.297321 11.244 0.446086C11.5473 0.548869 11.8175 0.726337 12.028 0.96094C12.2384 1.19554 12.3819 1.47916 12.4441 1.78373L14.9735 12.4849C15.0417 12.7754 15.0335 13.0777 14.9497 13.3643C14.8658 13.6509 14.709 13.9127 14.4935 14.1257C14.2535 14.3754 14.235 14.3933 11.9641 15.5347C13.7827 19.3887 16.9735 22.4836 20.9556 24.2562C22.1557 22.0446 22.1741 22.0268 22.4326 21.7949C22.6532 21.5868 22.9241 21.4353 23.2208 21.3543C23.5176 21.2733 23.8305 21.2653 24.1312 21.3312L35.2091 23.7746C35.5143 23.843 35.7964 23.9853 36.029 24.1881C36.2616 24.391 36.4369 24.6476 36.5384 24.9339C36.6942 25.3572 36.8116 25.7929 36.8892 26.2359C36.9635 26.6841 37.0006 27.1374 37 27.5914C36.9659 29.758 36.046 31.8236 34.441 33.3373C32.8359 34.851 30.6762 35.6898 28.4331 35.6707V35.6707ZM8.49301 3.56726C7.22136 3.57196 6.00319 4.06202 5.10399 4.93064C4.20479 5.79927 3.69748 6.97602 3.69261 8.20443C3.6975 14.5415 6.30566 20.6176 10.9443 25.0985C15.583 29.5795 21.873 32.099 28.4331 32.1037C29.7048 32.099 30.9229 31.6089 31.8221 30.7403C32.7213 29.8717 33.2287 28.6949 33.2335 27.4665V26.878L24.6667 24.9696L24.1312 25.9505C23.3004 27.5022 22.6911 28.6258 21.1402 28.0194C18.0807 26.9615 15.3035 25.2586 13.0104 23.0342C10.7174 20.8099 8.96608 18.1201 7.88373 15.1602C7.21906 13.769 8.47455 13.127 10.0624 12.3244L11.0778 11.8428L9.10229 3.56726H8.49301Z" fill="white"/>
</svg>
